<svg xmlns="http://www.w3.org/2000/svg" xmlns:xlink="http://www.w3.org/1999/xlink" viewBox="0 0 82.67 82.67"><defs><style>.cls-1{fill:url(#linear-gradient);}.cls-2{fill:url(#linear-gradient-2);}.cls-3{fill:#0098ce;}.cls-4{fill:#7abf77;}</style><linearGradient id="linear-gradient" x1="13.47" y1="46.84" x2="43.09" y2="18.59" gradientUnits="userSpaceOnUse"><stop offset="0" stop-color="#0297cd"/><stop offset="0.45" stop-color="#27a3d0"/><stop offset="1" stop-color="#23b5de"/></linearGradient><linearGradient id="linear-gradient-2" x1="34.56" y1="81.19" x2="67.58" y2="22.98" gradientUnits="userSpaceOnUse"><stop offset="0" stop-color="#73bd6e"/><stop offset="0.45" stop-color="#9dcc58"/><stop offset="1" stop-color="#c0dd92"/></linearGradient></defs><title>Asset 4geoserver</title><g id="Layer_2" data-name="Layer 2"><g id="Layer_2-2" data-name="Layer 2"><path class="cls-1" d="M55.11,37.89a3.44,3.44,0,0,0,3.45-3.44V13.78A13.78,13.78,0,0,0,44.78,0H34.45A13.78,13.78,0,0,0,20.67,13.78v3.44H37.89a3.45,3.45,0,1,1,0,6.89H13.78A13.78,13.78,0,0,0,0,37.89V51.67A13.78,13.78,0,0,0,13.78,65.45h3.44V48.23A10.35,10.35,0,0,1,27.56,37.89ZM31,13.78a3.45,3.45,0,1,1,3.45-3.45A3.44,3.44,0,0,1,31,13.78Z"/><path class="cls-2" d="M68.89,17.22H65.45V34.45A10.35,10.35,0,0,1,55.11,44.78H27.56a3.45,3.45,0,0,0-3.45,3.45V68.89A13.78,13.78,0,0,0,37.89,82.67H48.23A13.78,13.78,0,0,0,62,68.89V65.45H44.78a3.45,3.45,0,0,1,0-6.89H68.89c7.61,0,13.78-6.17,13.78-13V31.76C82.67,23.39,76.5,17.22,68.89,17.22ZM51.67,68.89a3.45,3.45,0,1,1-3.44,3.45A3.45,3.45,0,0,1,51.67,68.89Z"/><path class="cls-3" d="M0,37.89V51.67A13.78,13.78,0,0,0,13.78,65.45h3.44V48.23A10.35,10.35,0,0,1,27.56,37.89h2.18a67.1,67.1,0,0,0-14.2-13.78H13.78A13.78,13.78,0,0,0,0,37.89Z"/><path class="cls-4" d="M41.34,62a3.38,3.38,0,0,1,.82-2.2,103.12,103.12,0,0,0-7.64-15h-7a3.45,3.45,0,0,0-3.45,3.45V68.89A13.78,13.78,0,0,0,37.89,82.67H48.23c.33,0,.66,0,1,0A141.86,141.86,0,0,0,44.31,65.4,3.43,3.43,0,0,1,41.34,62Z"/></g></g></svg>